# xmcd CD database file
#
# Track frame offsets:
#	150
#	19467
#	35864
#	58558
#	78851
#	97018
#
# Disc length: 1533 seconds
#
# Revision: 2
# Processed by: cddbd v1.5.2PL0 Copyright (c) Steve Scherf et al.
# Submitted via: CD2WAV32(JP) R3.22
#
DISCID=4a05fb06
DTITLE=プリモバ - プリモバ Vocal Stage 2006 WINTER
DYEAR=2006
DGENRE=Game
TTITLE0=中山マミ＆U-KO - I'll try my best!!
TTITLE1=YURIA - 君に再び逢えた奇跡
TTITLE2=KOTOKO - 原罪のレクイエム
TTITLE3=misakichi - 恋の経験値
TTITLE4=みるくくるみ - MISS YOU
TTITLE5=Mika - MORAL
EXTD=
EXTT0=「プリンセスうぃっちぃず」/PajamasSOFT 曲:Angel Note 詞:中山マミ
EXTT1=「ボーイミーツガール」/FrontWing 曲:藤間仁 詞:bee'
EXTT2=「PRISM ARK」/PajamasSOFT 曲:C.G mix 詞:KOTOKO
EXTT3=「ハーレムパーティー」/Tactics 詞曲:Cranberry studio
EXTT4=「おしえて・Re:メイド」/ユニゾンシフト・アクセント 曲:Angel Note 詞:みるくくるみ
EXTT5=「パペットプリンセス」/PajamasSOFT 曲:藤田淳平 詞:紗英
PLAYORDER=
